<svg width="1536" height="512" viewBox="0 0 1536 512" fill="none" xmlns="http://www.w3.org/2000/svg">
<rect width="1536" height="512" fill="white"/>
<path d="M598.625 211.5H621.688V247.312H653.062V211.5H676.062V303H653.062V266.125H621.688V303H598.625V211.5ZM729.875 237.438H750.312V303H729.875V293.5H729.625C725.208 301.208 718.042 305.062 708.125 305.062C701.667 305.062 696.5 303.021 692.625 298.938C688.792 294.854 686.875 289.125 686.875 281.75V237.438H707.312V275.25C707.312 280.042 708.125 283.438 709.75 285.438C711.417 287.438 714.021 288.438 717.562 288.438C725.771 288.438 729.875 284.083 729.875 275.375V237.438ZM792 289.688C795.25 289.688 797.812 289.062 799.688 287.812C801.604 286.562 802.917 285.021 803.625 283.188H824C822.167 290.021 818.583 295.375 813.25 299.25C807.958 303.125 801 305.062 792.375 305.062C781.625 305.062 773.104 301.854 766.812 295.438C760.562 289.021 757.438 280.625 757.438 270.25C757.438 260.083 760.5 251.75 766.625 245.25C772.75 238.708 780.938 235.438 791.188 235.438C798.479 235.438 804.688 237.146 809.812 240.562C814.979 243.979 818.792 248.667 821.25 254.625C823.75 260.583 825 267.583 825 275.625H777.875C777.875 280 779.25 283.438 782 285.938C784.792 288.438 788.125 289.688 792 289.688ZM800.875 253.062C798.458 250.688 795.229 249.5 791.188 249.5C787.146 249.5 783.917 250.688 781.5 253.062C779.083 255.396 777.875 258.771 777.875 263.188H804.5C804.5 258.771 803.292 255.396 800.875 253.062ZM868.125 252.812H856.75V279.938C856.75 280.896 856.771 281.729 856.812 282.438C856.896 283.104 857.062 283.708 857.312 284.25C857.604 284.792 857.833 285.229 858 285.562C858.208 285.896 858.604 286.188 859.188 286.438C859.812 286.688 860.312 286.875 860.688 287C861.062 287.125 861.729 287.229 862.688 287.312C863.688 287.354 864.5 287.375 865.125 287.375C865.75 287.375 866.75 287.375 868.125 287.375V302.75C863.625 303.667 859.396 304.125 855.438 304.125C848.229 304.125 843.229 302.312 840.438 298.688C837.646 295.021 836.25 289.292 836.25 281.5V252.812H827.188V237.438H836.25V219.188H856.75V237.438H868.125V252.812ZM915.5 255.625C915.5 251.542 912.729 249.5 907.188 249.5C903.479 249.5 900.688 250.229 898.812 251.688C896.979 253.146 895.896 255.438 895.562 258.562H876.375C876.542 255.312 877.25 252.333 878.5 249.625C879.75 246.917 881.583 244.479 884 242.312C886.417 240.146 889.604 238.458 893.562 237.25C897.562 236.042 902.146 235.438 907.312 235.438C916.896 235.438 924.062 237.583 928.812 241.875C933.604 246.125 936 253.229 936 263.188V293.25C936 296.5 937.271 298.125 939.812 298.125V303C936.188 304.375 932.229 305.062 927.938 305.062C923.688 305.062 920.667 304.229 918.875 302.562C917.083 300.854 916.188 298.688 916.188 296.062H915.938C913.688 298.646 910.708 300.792 907 302.5C903.333 304.208 899.438 305.062 895.312 305.062C888.562 305.062 883.292 303.333 879.5 299.875C875.708 296.417 873.812 291.875 873.812 286.25C873.812 280 875.917 275.146 880.125 271.688C884.375 268.229 890.583 265.688 898.75 264.062C904.792 262.854 908.688 261.917 910.438 261.25C913.771 259.833 915.458 257.958 915.5 255.625ZM902.438 290.938C906.604 290.938 909.812 289.792 912.062 287.5C914.354 285.208 915.5 282.396 915.5 279.062V271.125C912.792 272.167 909.292 273.146 905 274.062C897.833 275.688 894.25 278.771 894.25 283.312C894.25 288.396 896.979 290.938 902.438 290.938Z" fill="url(#paint0_linear_6_6)"/>
<defs>
<linearGradient id="paint0_linear_6_6" x1="892.796" y1="155.9" x2="1013.47" y2="202.393" gradientUnits="userSpaceOnUse">
<stop stop-color="#2E62FF"/>
<stop offset="1" stop-color="#00A3FF"/>
</linearGradient>
</defs>
</svg>
